# xmcd
#
# Track frame offsets:
#	150
#	21527
#	36302
#	59040
#	78576
#	96891
#	117808
#	132782
#	155179
#	179946
#	192058
#	195297
#	215731
#
# Disc length: 3090 seconds
# Revision: 2
# Processed by: cddbd v1.5.2PL0 Copyright (c) Steve Scherf et al.
# Submitted via: dBpowerAMP V12.0
#
DISCID=c50c100d
DTITLE=Dave Stamey - Come Ride with Me
DYEAR=2009
DGENRE=Country
TTITLE0=Come Ride with Me
TTITLE1=In Old McGee Canyon
TTITLE2=Desert Winds
TTITLE3=Sharon Littlehawk
TTITLE4=Dusty Road
TTITLE5=The Mission Bell
TTITLE6=Used Rough
TTITLE7=Geronimo's Children
TTITLE8=Crazy Mary
TTITLE9=Someone Go Back Home
TTITLE10=Intro to Ruby
TTITLE11=Ruby Could Sing
TTITLE12=One More for My Baby [Bonus Track]
EXTD=
EXTT0=
EXTT1=
EXTT2=
EXTT3=
EXTT4=
EXTT5=
EXTT6=
EXTT7=
EXTT8=
EXTT9=
EXTT10=
EXTT11=
EXTT12=
PLAYORDER=
